<svg xmlns="http://www.w3.org/2000/svg" width="160" height="40" viewBox="0 0 160 40" fill="none">
  <path d="M20 0C8.954 0 0 8.954 0 20C0 31.046 8.954 40 20 40C31.046 40 40 31.046 40 20C40 8.954 31.046 0 20 0ZM20 36C11.163 36 4 28.837 4 20C4 11.163 11.163 4 20 4C28.837 4 36 11.163 36 20C36 28.837 28.837 36 20 36Z" fill="#2563EB"/>
  <path d="M20 8V20L28 28" stroke="#2563EB" stroke-width="4" stroke-linecap="round" stroke-linejoin="round"/>
  <path d="M52 13H56.5C59.5 13 61.5 15 61.5 18C61.5 21 59.5 23 56.5 23H52V13ZM56.5 20.5C58 20.5 59 19.5 59 18C59 16.5 58 15.5 56.5 15.5H54.5V20.5H56.5Z" fill="#0F172A"/>
  <path d="M63 13H70.5V15.5H65.5V16.5H69.5V19H65.5V20.5H70.5V23H63V13Z" fill="#0F172A"/>
  <path d="M79 13V23H76.5L73 18.5V23H70.5V13H73L76.5 17.5V13H79Z" fill="#0F172A"/>
  <path d="M80 13H82.5V20.5H87V23H80V13Z" fill="#0F172A"/>
  <path d="M93.5 23.3C90 23.3 87.5 20.8 87.5 18C87.5 15.2 90 12.7 93.5 12.7C97 12.7 99.5 15.2 99.5 18C99.5 20.8 97 23.3 93.5 23.3ZM93.5 20.8C95.3 20.8 97 19.8 97 18C97 16.2 95.3 15.2 93.5 15.2C91.7 15.2 90 16.2 90 18C90 19.8 91.7 20.8 93.5 20.8Z" fill="#0F172A"/>
  <path d="M101 16C101 14.3 102.5 12.7 105 12.7C107.5 12.7 109 14.3 109 16V23H106.5V16.5C106.5 15.5 106 15 105 15C104 15 103.5 15.5 103.5 16.5V23H101V16Z" fill="#0F172A"/>
  <path d="M110 13H112.5V20.5H117V23H110V13Z" fill="#0F172A"/>
  <path d="M118 13H120.5V23H118V13Z" fill="#0F172A"/>
  <path d="M122 13H124.5L127.5 18.5L130.5 13H133V23H130.5V17.5L128.5 21H126.5L124.5 17.5V23H122V13Z" fill="#0F172A"/>
  <path d="M134 13H141.5V15.5H136.5V16.5H140.5V19H136.5V20.5H141.5V23H134V13Z" fill="#0F172A"/>
  <path d="M147 13H149.5V23H147.5L144 18.5V23H141.5V13H143.5L147 17.5V13Z" fill="#0F172A"/>
  <path d="M158 13V15.5H155V23H152.5V15.5H149.5V13H158Z" fill="#0F172A"/>
</svg> 